<svg xmlns="http://www.w3.org/2000/svg" viewBox="177.517 364.863 18.609 18.609"><defs><style>.a{fill:#a5a5a5;}</style></defs><g transform="translate(177.517 364.863)"><path class="a" d="M12.794,0H5.815A5.816,5.816,0,0,0,0,5.815v6.979a5.816,5.816,0,0,0,5.815,5.815h6.979a5.816,5.816,0,0,0,5.815-5.815V5.815A5.816,5.816,0,0,0,12.794,0Zm4.071,12.794a4.075,4.075,0,0,1-4.071,4.071H5.815a4.075,4.075,0,0,1-4.071-4.071V5.815A4.075,4.075,0,0,1,5.815,1.745h6.979a4.075,4.075,0,0,1,4.071,4.071Z"/><g transform="translate(4.652 4.652)"><path class="a" d="M132.652,128a4.652,4.652,0,1,0,4.652,4.652A4.653,4.653,0,0,0,132.652,128Zm0,7.56a2.908,2.908,0,1,1,2.908-2.908A2.912,2.912,0,0,1,132.652,135.56Z" transform="translate(-128 -128)"/></g><g transform="translate(13.686 3.683)"><ellipse class="a" cx="0.62" cy="0.62" rx="0.62" ry="0.62"/></g></g></svg>