<svg xmlns="http://www.w3.org/2000/svg" viewBox="-655 863.588 79.246 79.246"><defs><style>.a{fill:#fff;}.b{fill:rgba(224,16,192,0.75);}.c{fill:#1081e0;}.d{fill:#e010c0;}</style></defs><circle class="a" cx="39.623" cy="39.623" r="39.623" transform="translate(-655 863.588)"/><path class="b" d="M34.856,4.254h0a16.867,16.867,0,0,0-22.395,0h0c-5.572,5.11-6.2,14.731-1.471,20.513L23.926,40.429l12.4-15.663C41.055,18.985,40.428,9.363,34.856,4.254Z" transform="translate(-638.402 895.797)"/><path class="c" d="M34.856,4.638h0a15.836,15.836,0,0,0-22.395,0h0C6.889,10.21,6.262,20.7,10.991,27.007L23.659,45.3,36.327,27.007C41.055,20.7,40.428,10.21,34.856,4.638ZM23.813,20.909a5.227,5.227,0,1,1,5.227-5.227A5.227,5.227,0,0,1,23.813,20.909Z" transform="translate(-649.616 877.06)"/><path class="d" d="M34.856,4.638h0a15.836,15.836,0,0,0-22.395,0h0C6.889,10.21,6.262,20.7,10.991,27.007L23.659,45.3,36.327,27.007C41.055,20.7,40.428,10.21,34.856,4.638ZM23.813,20.909a5.227,5.227,0,1,1,5.227-5.227A5.227,5.227,0,0,1,23.813,20.909Z" transform="translate(-627.175 877.06)"/></svg>