<svg xmlns="http://www.w3.org/2000/svg" viewBox="-110 184 120 151"><defs><style>.a,.e{fill:#fff;}.a{stroke:#95989a;}.b{fill:rgba(224,16,192,0.75);}.c{fill:#1081e0;}.d{fill:#e010c0;}.e{font-size:20px;font-family:HelveticaNeue, Helvetica Neue;}.f{stroke:none;}.g{fill:none;}</style></defs><g transform="translate(-238 85)"><g class="a" transform="translate(128 99)"><circle class="f" cx="60" cy="60" r="60"/><circle class="g" cx="60" cy="60" r="59.5"/></g><path class="b" d="M48.758,6.441h0a25.541,25.541,0,0,0-33.912,0h0C6.409,14.178,5.459,28.748,12.62,37.5L32.207,61.22,50.985,37.5C58.146,28.748,57.2,14.178,48.758,6.441Z" transform="translate(157.157 147.774)"/><path class="c" d="M48.758,7.023h0a23.98,23.98,0,0,0-33.912,0h0C6.409,15.461,5.459,31.348,12.62,40.9L31.8,68.6,50.985,40.9C58.146,31.348,57.2,15.461,48.758,7.023ZM32.036,31.661a7.915,7.915,0,1,1,7.915-7.915A7.915,7.915,0,0,1,32.036,31.661Z" transform="translate(140.177 119.4)"/><path class="d" d="M48.758,7.023h0a23.98,23.98,0,0,0-33.912,0h0C6.409,15.461,5.459,31.348,12.62,40.9L31.8,68.6,50.985,40.9C58.146,31.348,57.2,15.461,48.758,7.023ZM32.036,31.661a7.915,7.915,0,1,1,7.915-7.915A7.915,7.915,0,0,1,32.036,31.661Z" transform="translate(174.157 119.4)"/></g></svg>