<svg xmlns="http://www.w3.org/2000/svg" viewBox="-167 959 147.171 24"><defs><style>.a,.e{fill:#fff;}.b{fill:rgba(224,16,192,0.75);}.c{fill:#1081e0;}.d{fill:#e010c0;}.e{font-size:20px;font-family:HelveticaNeue, Helvetica Neue;}</style></defs><g transform="translate(-938 1157)"><circle class="a" cx="11.444" cy="11.444" r="11.444" transform="translate(771 -197)"/><path class="b" d="M15.631,1.229h0a4.872,4.872,0,0,0-6.468,0h0a4.5,4.5,0,0,0-.425,5.925l3.736,4.524,3.582-4.524A4.5,4.5,0,0,0,15.631,1.229Z" transform="translate(770.231 -187.697)"/><path class="c" d="M15.631,1.34h0a4.574,4.574,0,0,0-6.468,0h0A5.244,5.244,0,0,0,8.738,7.8L12.4,13.085,16.056,7.8A5.244,5.244,0,0,0,15.631,1.34Zm-3.19,4.7a1.51,1.51,0,1,1,1.51-1.51A1.51,1.51,0,0,1,12.441,6.039Z" transform="translate(766.992 -193.109)"/><path class="d" d="M15.631,1.34h0a4.574,4.574,0,0,0-6.468,0h0A5.244,5.244,0,0,0,8.738,7.8L12.4,13.085,16.056,7.8A5.244,5.244,0,0,0,15.631,1.34Zm-3.19,4.7a1.51,1.51,0,1,1,1.51-1.51A1.51,1.51,0,0,1,12.441,6.039Z" transform="translate(773.473 -193.109)"/><text class="e" transform="translate(799.171 -179)"><tspan x="0" y="0">Paypeermeet</tspan></text></g></svg>