<svg xmlns="http://www.w3.org/2000/svg" viewBox="205.985 364.951 22.801 18.521"><defs><style>.a{fill:#a5a5a5;}</style></defs><g transform="translate(205.985 364.951)"><g transform="translate(0 0)"><path class="a" d="M22.8,59.632a9.341,9.341,0,0,1-2.686.737,4.7,4.7,0,0,0,2.056-2.586A9.43,9.43,0,0,1,19.2,58.919a4.681,4.681,0,0,0-7.97,4.264A13.28,13.28,0,0,1,1.59,58.3a4.683,4.683,0,0,0,1.448,6.244,4.678,4.678,0,0,1-2.119-.587v.058A4.682,4.682,0,0,0,4.67,68.6a4.738,4.738,0,0,1-1.232.164,4.489,4.489,0,0,1-.881-.087,4.68,4.68,0,0,0,4.369,3.249,9.385,9.385,0,0,1-5.809,2A9.942,9.942,0,0,1,0,73.858a13.222,13.222,0,0,0,7.17,2.1A13.216,13.216,0,0,0,20.478,62.654l-.016-.606A9.34,9.34,0,0,0,22.8,59.632Z" transform="translate(-0.001 -57.441)"/></g></g></svg>